HIERARCHY
ROOT Hips
{
	OFFSET 0.000000 0.000000 0.000000
	CHANNELS 6 Xposition Yposition Zposition Xrotation Yrotation Zrotation
	JOINT LeftUpLeg_virtual
	{
		OFFSET 0.000000 0.000000 0.000000
		CHANNELS 3 Xrotation Yrotation Zrotation
		JOINT LeftUpLeg
		{
			OFFSET 10.205400 -3.823500 0.155100
			CHANNELS 3 Xrotation Yrotation Zrotation
			JOINT LeftLeg
			{
				OFFSET 0.708757 -12.982077 0.567790
				CHANNELS 3 Xrotation Yrotation Zrotation
				JOINT LeftFoot
				{
					OFFSET -0.708756 -10.717838 -2.184338
					CHANNELS 3 Xrotation Yrotation Zrotation
					JOINT LeftToeBase
					{
						OFFSET 0.108149 -7.191104 7.560241
						CHANNELS 3 Xrotation Yrotation Zrotation
						JOINT LeftToe_End
						{
							OFFSET 0.070230 0.081724 4.490308
							CHANNELS 3 Xrotation Yrotation Zrotation
							End Site
							{
								OFFSET 0 0 0
							}
						}
					}
				}
			}
		}
	}
	JOINT RightUpLeg_virtual
	{
		OFFSET 0.000000 0.000000 0.000000
		CHANNELS 3 Xrotation Yrotation Zrotation
		JOINT RightUpLeg
		{
			OFFSET -10.205400 -3.823500 0.005500
			CHANNELS 3 Xrotation Yrotation Zrotation
			JOINT RightLeg
			{
				OFFSET -0.708756 -12.982134 0.610632
				CHANNELS 3 Xrotation Yrotation Zrotation
				JOINT RightFoot
				{
					OFFSET 0.708754 -10.717769 -1.945823
					CHANNELS 3 Xrotation Yrotation Zrotation
					JOINT RightToeBase
					{
						OFFSET -0.108140 -7.191069 7.372968
						CHANNELS 3 Xrotation Yrotation Zrotation
						JOINT RightToe_End
						{
							OFFSET -0.070227 0.081735 4.479403
							CHANNELS 3 Xrotation Yrotation Zrotation
							End Site
							{
								OFFSET 0 0 0
							}
						}
					}
				}
			}
		}
	}
	JOINT Spine_virtual
	{
		OFFSET 0.000000 0.000000 0.000000
		CHANNELS 3 Xrotation Yrotation Zrotation
		JOINT Spine
		{
			OFFSET 0.000000 6.876099 0.125700
			CHANNELS 3 Xrotation Yrotation Zrotation
			JOINT Spine1
			{
				OFFSET 0.000000 5.730043 0.104720
				CHANNELS 3 Xrotation Yrotation Zrotation
				JOINT Spine1_split
				{
					OFFSET 0.000000 5.730043 0.104720
					CHANNELS 3 Xrotation Yrotation Zrotation
					JOINT Spine2
					{
						OFFSET 0.000000 5.730043 0.104720
						CHANNELS 3 Xrotation Yrotation Zrotation
						JOINT Neck_virtual
						{
							OFFSET 0.000000 0.000000 0.000000
							CHANNELS 3 Xrotation Yrotation Zrotation
							JOINT Neck
							{
								OFFSET 0.000000 10.314075 0.188496
								CHANNELS 3 Xrotation Yrotation Zrotation
								JOINT Head
								{
									OFFSET 0.000000 7.643700 -2.377400
									CHANNELS 3 Xrotation Yrotation Zrotation
									JOINT HeadTop_End
									{
										OFFSET 0.000000 43.788605 -13.619600
										CHANNELS 3 Xrotation Yrotation Zrotation
										End Site
										{
											OFFSET 0 0 0
										}
									}
								}
							}
						}
						JOINT LeftShoulder_virtual
						{
							OFFSET 0.000000 0.000000 0.000000
							CHANNELS 3 Xrotation Yrotation Zrotation
							JOINT LeftShoulder
							{
								OFFSET 2.196100 4.412489 0.087492
								CHANNELS 3 Xrotation Yrotation Zrotation
								JOINT LeftShoulder_split
								{
									OFFSET 2.196100 4.412489 0.087492
									CHANNELS 3 Xrotation Yrotation Zrotation
									JOINT LeftArm
									{
										OFFSET 8.771219 -2.981674 -0.026999
										CHANNELS 3 Xrotation Yrotation Zrotation
										JOINT LeftForeArm
										{
											OFFSET 8.512804 0.000000 -0.000000
											CHANNELS 3 Xrotation Yrotation Zrotation
											JOINT LeftHand
											{
												OFFSET 18.484802 0.000000 -0.000000
												CHANNELS 3 Xrotation Yrotation Zrotation
												End Site
												{
													OFFSET 0 0 0
												}
											}
										}
									}
								}
							}
						}
						JOINT RightShoulder_virtual
						{
							OFFSET 0.000000 0.000000 0.000000
							CHANNELS 3 Xrotation Yrotation Zrotation
							JOINT RightShoulder
							{
								OFFSET -2.196100 4.412496 0.070690
								CHANNELS 3 Xrotation Yrotation Zrotation
								JOINT RightShoulder_split
								{
									OFFSET -2.196100 4.412496 0.070690
									CHANNELS 3 Xrotation Yrotation Zrotation
									JOINT RightArm
									{
										OFFSET -8.771282 -2.981682 -0.094208
										CHANNELS 3 Xrotation Yrotation Zrotation
										JOINT RightForeArm
										{
											OFFSET -8.494598 0.000000 0.000000
											CHANNELS 3 Xrotation Yrotation Zrotation
											JOINT RightHand
											{
												OFFSET -18.483803 0.000000 0.000001
												CHANNELS 3 Xrotation Yrotation Zrotation
												End Site
												{
													OFFSET 0 0 0
												}
											}
										}
									}
								}
							}
						}
					}
				}
			}
		}
	}
}
MOTION
Frames: 10
Frame Time: 0.03333333
-5.877751 5.969490 -27.522444 0.000000 0.000000 0.000000 -87.156725 26.870782 4.562400 -71.124215 9.931495 29.568664 75.238748 17.440393 -0.634328 15.609492 8.327603 -1.206949 0.139568 0.000004 0.000014 0.000000 0.000000 0.000000 -87.156725 26.870782 4.562400 -35.183930 7.736882 -49.135391 114.224833 24.785153 10.345495 6.507439 -3.357017 31.370806 0.000007 0.000001 0.000004 0.000000 0.000000 0.000000 -87.156725 26.870782 4.562400 53.908433 11.472875 -1.976467 20.535753 3.211058 0.186204 0.000000 0.000000 0.000000 0.000000 0.000000 0.000000 20.612223 2.862299 0.333965 6.354674 0.273871 -2.216753 32.669218 -1.249307 -2.725199 0.000000 0.000000 0.000000 20.612223 2.862299 0.333965 0.690089 -7.698579 -13.129571 0.000000 0.000000 0.000000 -23.121925 -24.042652 -24.824230 0.000016 -63.058820 0.000024 0.000000 0.000000 0.000000 20.612223 2.862299 0.333965 0.136780 13.961801 14.788446 0.000000 0.000000 0.000000 -26.720450 -13.516591 33.282112 0.000009 41.763058 -0.000014 0.000000 0.000000 0.000000 
-6.083645 5.761539 -28.353731 0.000000 0.000000 0.000000 -96.211793 26.077392 5.770484 -65.353538 5.753707 30.079805 71.213595 15.826523 2.070015 23.011145 6.879497 2.066845 0.305980 0.000004 0.000008 0.000000 0.000000 0.000000 -96.211793 26.077392 5.770484 -22.691828 8.841880 -46.124274 111.417857 24.923090 6.095771 2.274602 -6.327620 33.669691 0.000003 0.000006 0.000002 0.000000 0.000000 0.000000 -96.211793 26.077392 5.770484 53.617699 12.887035 -0.161842 21.302515 3.531561 0.486730 0.000000 0.000000 0.000000 0.000000 0.000000 0.000000 21.413459 3.045616 0.639494 5.772043 0.276190 -2.724579 26.591373 -2.420396 -3.858298 0.000000 0.000000 0.000000 21.413459 3.045616 0.639494 0.618666 -7.705195 -13.035370 0.000000 0.000000 0.000000 -16.051295 -24.091792 -18.542282 -0.000022 -64.438935 -0.000022 0.000000 0.000000 0.000000 21.413459 3.045616 0.639494 0.368030 14.232624 12.568262 0.000000 0.000000 0.000000 -15.163285 -12.817773 34.004459 0.000012 41.556920 -0.000017 0.000000 0.000000 0.000000 
-6.047917 5.716715 -29.078051 0.000000 0.000000 0.000000 -105.863636 25.557504 7.361509 -57.110077 3.170418 32.385861 67.949242 13.498611 4.299871 26.403377 3.643473 -0.044218 0.454311 0.000014 0.000011 0.000000 0.000000 0.000000 -105.863636 25.557504 7.361509 -11.347627 11.316204 -44.437655 111.274621 23.039577 1.854419 -0.793112 -7.981562 33.871735 0.000021 -0.000002 -0.000013 0.000000 0.000000 0.000000 -105.863636 25.557504 7.361509 52.532433 12.695987 1.866927 21.192019 3.289848 0.753225 0.000000 0.000000 0.000000 0.000000 0.000000 0.000000 21.312758 2.716130 0.941972 5.822422 0.265669 -2.893500 26.499339 -3.586465 -3.784521 0.000000 0.000000 0.000000 21.312758 2.716130 0.941972 0.548365 -8.140325 -12.910312 0.000000 0.000000 0.000000 -10.892221 -23.869734 -15.235365 0.000022 -61.758318 0.000032 0.000000 0.000000 0.000000 21.312758 2.716130 0.941972 0.431953 14.333478 11.516024 0.000000 0.000000 0.000000 -2.584125 -5.159813 32.975935 -0.000003 35.399508 -0.000014 0.000000 0.000000 0.000000 
-6.110291 5.930229 -29.684668 0.000000 0.000000 0.000000 -114.760593 25.792683 8.548784 -50.107477 0.508189 36.753818 67.121280 11.131527 6.236601 24.573018 0.695515 -4.805788 0.434294 -0.000035 -0.000017 0.000000 0.000000 0.000000 -114.760593 25.792683 8.548784 -1.565889 12.597985 -43.604887 111.001127 22.233920 -0.955502 -2.505079 -8.908544 32.241362 0.000027 -0.000002 0.000005 0.000000 0.000000 0.000000 -114.760593 25.792683 8.548784 49.540277 10.806096 3.526337 19.813021 2.537995 0.647773 0.000000 0.000000 0.000000 0.000000 0.000000 0.000000 19.912486 1.937060 0.895216 6.495167 0.264975 -2.706694 31.372360 -4.092080 -3.476026 0.000000 0.000000 0.000000 19.912486 1.937060 0.895216 0.492893 -8.977881 -12.094659 0.000000 0.000000 0.000000 -7.279192 -22.558962 -16.271222 -0.000009 -57.917723 -0.000020 0.000000 0.000000 0.000000 19.912486 1.937060 0.895216 0.434037 12.961610 11.430392 0.000000 0.000000 0.000000 9.841227 6.566304 32.310138 0.000003 26.820063 -0.000009 0.000000 0.000000 0.000000 
-6.366858 6.412174 -30.285986 0.000000 0.000000 0.000000 -121.083463 26.514682 9.115237 -46.320550 -1.910179 41.660995 66.814051 9.616848 7.565323 20.541410 -0.754038 -8.944052 0.068442 -0.000019 0.000006 0.000000 0.000000 0.000000 -121.083463 26.514682 9.115237 4.580857 13.707614 -43.421698 111.366856 22.342555 -2.236089 -4.568752 -6.661120 27.764009 0.000006 0.000000 0.000003 0.000000 0.000000 0.000000 -121.083463 26.514682 9.115237 44.669126 7.204426 3.881837 17.311044 1.411752 -0.146468 0.000000 0.000000 0.000000 0.000000 0.000000 0.000000 17.369907 0.817396 0.168537 7.139814 0.269603 -2.399110 34.588457 -3.638910 -4.542990 0.000000 0.000000 0.000000 17.369907 0.817396 0.168537 0.538449 -9.973101 -9.961798 0.000000 0.000000 0.000000 -3.179592 -18.500640 -19.681801 -0.000014 -55.463725 -0.000003 0.000000 0.000000 0.000000 17.369907 0.817396 0.168537 0.438126 10.094235 11.981942 0.000000 0.000000 0.000000 21.216502 15.450175 31.864759 0.000002 25.231569 -0.000001 0.000000 0.000000 0.000000 
-6.608747 7.039085 -31.011503 0.000000 0.000000 0.000000 -124.091847 27.092249 9.507796 -45.474252 -2.406498 44.764793 64.633042 10.053418 8.173935 17.259144 -1.635207 -11.510254 -0.622001 -0.000008 0.000004 0.000000 0.000000 0.000000 -124.091847 27.092249 9.507796 7.216507 15.925052 -45.072275 113.366216 24.933921 -2.291271 -6.940577 -4.916967 22.617526 0.000004 0.000001 -0.000006 0.000000 0.000000 0.000000 -124.091847 27.092249 9.507796 39.393403 1.678831 2.899509 14.118076 -0.180331 -1.277136 0.000000 0.000000 0.000000 0.000000 0.000000 0.000000 14.128689 -0.681851 -0.833138 6.875278 0.288298 -2.238477 31.259351 -1.895433 -7.919913 0.000000 0.000000 0.000000 14.128689 -0.681851 -0.833138 0.729427 -10.066545 -6.843932 0.000000 0.000000 0.000000 3.604206 -12.342434 -23.306100 0.000021 -54.455889 0.000032 0.000000 0.000000 0.000000 14.128689 -0.681851 -0.833138 0.480509 7.258804 12.643899 0.000000 0.000000 0.000000 32.453009 15.591070 29.432194 0.000006 37.029929 -0.000008 0.000000 0.000000 0.000000 
-6.743135 7.614269 -31.894754 0.000000 0.000000 0.000000 -124.870570 26.957674 10.011994 -45.074986 -1.867526 47.210291 61.797455 9.799605 8.291955 14.462391 -2.215152 -14.033700 -1.267020 0.000015 -0.000002 0.000000 0.000000 0.000000 -124.870570 26.957674 10.011994 7.802635 19.831085 -48.949777 115.911589 28.245808 -1.558833 -7.414327 -3.703058 19.197013 0.000006 0.000001 0.000001 0.000000 0.000000 0.000000 -124.870570 26.957674 10.011994 35.751481 -5.350227 2.006442 10.455365 -2.226721 -1.860081 0.000000 0.000000 0.000000 0.000000 0.000000 0.000000 10.459578 -2.460439 -1.279201 5.112234 0.314757 -2.297878 23.206299 1.302360 -12.412891 0.000000 0.000000 0.000000 10.459578 -2.460439 -1.279201 0.775712 -8.019523 -4.185617 0.000000 0.000000 0.000000 12.943441 -8.407540 -26.998683 0.000021 -51.131985 0.000004 0.000000 0.000000 0.000000 10.459578 -2.460439 -1.279201 0.515203 5.927058 12.555208 0.000000 0.000000 0.000000 41.941098 8.748286 25.772717 0.000003 54.265832 -0.000000 0.000000 0.000000 0.000000 
-6.936162 7.981970 -32.957771 0.000000 0.000000 0.000000 -125.234606 25.891475 10.359359 -44.780400 -2.455775 48.939774 60.374706 8.491867 8.801488 11.501594 -1.601424 -13.360595 -1.505944 -0.000025 0.000018 0.000000 0.000000 0.000000 -125.234606 25.891475 10.359359 6.410690 24.433392 -51.732399 118.235274 30.905916 -0.739452 -5.761816 -3.095008 17.082752 0.000009 -0.000003 -0.000010 0.000000 0.000000 0.000000 -125.234606 25.891475 10.359359 34.514076 -11.750329 1.778454 7.362532 -4.170629 -1.996039 0.000000 0.000000 0.000000 0.000000 0.000000 0.000000 7.441928 -4.172572 -1.391702 1.854003 0.307515 -2.507341 16.203007 5.189367 -15.673778 0.000000 0.000000 0.000000 7.441928 -4.172572 -1.391702 0.493291 -4.111472 -3.209771 0.000000 0.000000 0.000000 22.577645 -7.877769 -27.817769 -0.000014 -46.496588 -0.000022 0.000000 0.000000 0.000000 7.441928 -4.172572 -1.391702 0.546263 5.769556 11.209241 0.000000 0.000000 0.000000 48.002119 2.618951 23.644860 0.000002 64.875978 -0.000017 0.000000 0.000000 0.000000 
-7.243901 8.020159 -34.182640 0.000000 0.000000 0.000000 -126.087082 24.088450 10.249104 -43.891151 -4.463184 50.408961 61.930111 7.718056 9.977469 5.884144 1.199533 -9.502122 -1.397139 0.000037 -0.000004 0.000000 0.000000 0.000000 -126.087082 24.088450 10.249104 3.044648 28.698047 -50.738514 120.936504 31.151181 -0.094966 -4.908307 -2.831792 14.971727 0.000005 -0.000005 -0.000004 0.000000 0.000000 0.000000 -126.087082 24.088450 10.249104 34.793458 -15.294516 1.541772 5.467649 -5.231971 -2.084930 0.000000 0.000000 0.000000 0.000000 0.000000 0.000000 5.622605 -5.139849 -1.568273 -2.319322 0.264939 -2.842234 13.551264 8.522912 -16.821214 0.000000 0.000000 0.000000 5.622605 -5.139849 -1.568273 0.243822 -0.389369 -3.777552 0.000000 0.000000 0.000000 31.876213 -8.827628 -23.574528 0.000007 -43.442021 -0.000002 0.000000 0.000000 0.000000 5.622605 -5.139849 -1.568273 0.606985 5.082114 9.278816 0.000000 0.000000 0.000000 51.023463 1.475858 23.702505 -0.000011 63.950487 -0.000003 0.000000 0.000000 0.000000 
-7.447916 7.655922 -35.339523 0.000000 0.000000 0.000000 -127.032872 22.014253 9.815671 -41.298073 -6.344053 52.985278 64.559071 8.438968 11.171908 -0.637124 4.856567 -7.675383 -1.248438 -0.000009 -0.000005 0.000000 0.000000 0.000000 -127.032872 22.014253 9.815671 -1.010595 32.259154 -47.832634 124.032738 29.856420 0.746688 -6.207719 -2.598106 11.912094 0.000024 -0.000000 -0.000001 0.000000 0.000000 0.000000 -127.032872 22.014253 9.815671 35.141456 -15.693871 0.198455 4.881635 -5.272481 -2.346998 0.000000 0.000000 0.000000 0.000000 0.000000 0.000000 5.048197 -5.186469 -1.841470 -6.479288 0.279814 -3.325072 14.116260 10.790105 -17.250625 0.000000 0.000000 0.000000 5.048197 -5.186469 -1.841470 0.249925 1.399649 -4.818882 0.000000 0.000000 0.000000 40.489501 -7.672684 -16.009291 0.000007 -44.464269 0.000015 0.000000 0.000000 0.000000 5.048197 -5.186469 -1.841470 0.586344 2.997926 8.197192 0.000000 0.000000 0.000000 49.168295 5.887580 24.482770 0.000015 52.170143 -0.000023 0.000000 0.000000 0.000000 
